PathFileType	4	(X/Y/Z)	29_2_97_p1_0-537.trc
DataRate	CameraRate	NumFrames	NumMarkers	Units	OrigDataRate	OrigDataStartFrame	OrigNumFrames
59.0	59.0	4	27	m	59.0	0	538
Frame#	Time	RHip			RKnee			RAnkle			RBigToe			RSmallToe			RHeel			LHip			LKnee			LAnkle			LBigToe			LSmallToe			LHeel			Neck			Head			Nose			RShoulder			RElbow			RWrist			RThumb			RIndex			RPinky			LShoulder			LElbow			LWrist			LThumb			LIndex			LPinky			
		X1	Y1	Z1	X2	Y2	Z2	X3	Y3	Z3	X4	Y4	Z4	X5	Y5	Z5	X6	Y6	Z6	X7	Y7	Z7	X8	Y8	Z8	X9	Y9	Z9	X10	Y10	Z10	X11	Y11	Z11	X12	Y12	Z12	X13	Y13	Z13	X14	Y14	Z14	X15	Y15	Z15	X16	Y16	Z16	X17	Y17	Z17	X18	Y18	Z18	X19	Y19	Z19	X20	Y20	Z20	X21	Y21	Z21	X22	Y22	Z22	X23	Y23	Z23	X24	Y24	Z24	X25	Y25	Z25	X26	Y26	Z26	X27	Y27	Z27	
0	0.0	0.36084866571726987	0.6300940397365552	0.8940275008524003	0.33882530550164397	0.7191948934573831	1.3158453058420536	0.29899453598709846	0.8552733114471888	1.7554009114566325	0.2820487706851942	0.6429836523961969	1.7765223240534567	0.34099399799876356	0.6424796328429201	1.76343743418511	0.2748547277934668	0.9188805258914715	1.8171651761879586	0.13293228944747945	0.6132517505961548	0.8984735762247849	0.11728176289154515	0.681316755708296	1.2882546452797694	0.09288164074367797	0.8134752669949348	1.7394599960432833	0.11846927822609378	0.6050287436764631	1.7455580617838713	0.05943961486851653	0.6491490043512398	1.7527275151503172	0.1096718392530089	0.8847761781367676	1.782063224294903	0.2749104048582465	0.531738674673358	0.31532386176607746	0.3000914015772016	0.4608366422795708	0.0671397069510887	0.30085028803877795	0.40074967338326245	0.2002059108545022	0.43459247872462453	0.5274127046154954	0.44094750909631214	0.45213959799188774	0.5263149930724171	0.6781586613375553	0.31002346602805425	0.41131678773935854	0.8356935675340567	0.2287690070722169	0.3993699966882206	0.8999943288932197	0.22457652388876181	0.4116120808930066	0.9071547602347992	0.2359007695779367	0.42515259114902887	0.918007974024041	0.1186854076180421	0.5034112693579784	0.42386171863277755	0.05833693336943964	0.5059204242629302	0.6676072771590555	0.1773436370765278	0.37714628484619445	0.8181643398359267	0.2716971558119802	0.3928626784881399	0.8708204688390633	0.26984985034681874	0.39140744891873014	0.8966697117512257	0.24243093090527235	0.40062337620711924	0.9192548840885338
1	0.01694915254237288	0.35949188056950093	0.6308631981423833	0.9055095309735472	0.3388075749812513	0.7195434671784301	1.3162960584843673	0.297732202313214	0.8564553535257504	1.7602872642331615	0.28283460077928724	0.645949614090695	1.7823152301555722	0.3411355345535197	0.6438260768910754	1.7637844076185678	0.27411002162125075	0.9157156851093005	1.8120638698612483	0.13190710088010688	0.6139758269717067	0.902785839228721	0.11779115672811505	0.6830518998013502	1.2977338436876023	0.09219912460453739	0.8107443745792765	1.73389025635236	0.11847320510629032	0.6055044259933432	1.7456487247491743	0.059152874735322845	0.6507640285632642	1.7490884737790928	0.10955032041740104	0.8849111891123885	1.7822814590268121	0.27911345907930313	0.5194147578760268	0.3224932746451957	0.3042298616186195	0.44870229015689245	0.06880819687376755	0.29694893626932484	0.39902955759933784	0.20019831776351704	0.42983790065575594	0.5238146717147821	0.43733998398764873	0.4563125242962485	0.5270686876688868	0.6783949767000375	0.30967210587843	0.40894004494701686	0.8319941374798753	0.22571412990861475	0.3866266517002735	0.8954317728326625	0.2247089624606545	0.41072643155055066	0.9073123663243214	0.2356462204012941	0.42504626815536206	0.9188479455735908	0.1228599236496363	0.504997929492549	0.4237052662234409	0.06314953547827956	0.49160144391922894	0.6656152813766476	0.18142058260384772	0.37817023228787366	0.818043572806583	0.2662772553077748	0.39152491984194193	0.8747365665895502	0.2629479974700749	0.37880733556464796	0.8945266368792096	0.23239402166162787	0.3887542596809048	0.9095804195463197
2	0.03389830508474576	0.36404070762334856	0.6167442281701856	0.9034517481700961	0.334444064709217	0.7176165183041106	1.3158515771732557	0.2975712220016797	0.8578021588516811	1.756134624866424	0.28300483268526233	0.6456487295544698	1.782084020352392	0.34132342390255316	0.6433757825008397	1.7636542127881853	0.27394349203223883	0.9167862786234271	1.8080132429970364	0.1318525247021003	0.6137508746892415	0.903028065465638	0.11740707349693937	0.6803036486175292	1.2925792016707953	0.0922084293822026	0.8108226083910338	1.7338147125811763	0.11846432609154091	0.6057653909169222	1.7455905497340691	0.059270253045070775	0.6508066020920646	1.7489576760583432	0.10354404832714928	0.9039624388354004	1.7898688081174186	0.2791505305280299	0.5191706911669811	0.3222689780920627	0.30431085496830146	0.4484271612382962	0.06888829872251442	0.29687841072119886	0.39882462956820186	0.2001923008986973	0.4343038993374323	0.5254723102777684	0.43739757943460106	0.456239162062779	0.5125076057262661	0.6844729121233111	0.31069995266397266	0.3816940097259039	0.8244915996890837	0.23677255471927205	0.4015637659830812	0.8871885431382076	0.22944727414057714	0.39999311305444696	0.897737699230859	0.23314077822197785	0.41295399803069865	0.9126430464552346	0.12295238666285108	0.503571641798742	0.42018803897738793	0.06297044901817647	0.4922841172802933	0.6614150177969071	0.1772141161570066	0.37677824570205887	0.8175328282197537	0.2631979276954902	0.3884975734369934	0.8697725609513867	0.265820778603291	0.38960129955020273	0.8924851959300211	0.23637276945073904	0.3766587082278125	0.9066991687699042
3	0.05084745762711865	0.35942738365006804	0.6305506415495621	0.9054375470040184	0.33327870090542944	0.7186234745061373	1.3205315186087618	0.2985181814465076	0.8590830409539499	1.765861581265456	0.28287591929068756	0.6458358420010628	1.782242078745763	0.33681640939235824	0.6428489351260714	1.7633055293343307	0.2750444305196391	0.9185467125795355	1.8171255257160148	0.13120657287894888	0.614541868544333	0.9065797496881469	0.11729191526970995	0.6804347222593364	1.2930638799400227	0.09225366411159826	0.8108528336913469	1.733851734527541	0.11840581046241887	0.6054901386955956	1.7454079527633959	0.05927342043593595	0.6505249731775564	1.7487362557315298	0.10595476305965275	0.9203209919149731	1.7962636342204237	0.27945182000876895	0.5188605384858161	0.315885465484376	0.3014093940372084	0.4384874079832654	0.07393805700437463	0.28969787948205783	0.3998187792610844	0.19989894476745898	0.4343038752484866	0.5256522402675947	0.4373052286748963	0.4518911978713477	0.5244333540594039	0.6817086251010754	0.29747229217079274	0.4038430507352053	0.8157685288351837	0.2369394453570882	0.4001192173716582	0.873670371294201	0.23469099655509318	0.3886626668963494	0.8843269442999611	0.2382240379741533	0.40008656338664217	0.908042228367993	0.12523565693686242	0.5167770970413378	0.4201638485000705	0.05741963820509306	0.5055602504876727	0.6621218511486462	0.17469339856218397	0.3659026259071069	0.8118412433266293	0.2622298252923961	0.35754208527866016	0.8498709076941131	0.26437583571779616	0.36287598862000114	0.8777381001075627	0.23617016247924497	0.3761557986111383	0.9056819075373379
